<svg width="72" height="65" viewBox="0 0 72 65" fill="none" xmlns="http://www.w3.org/2000/svg">
<path opacity="0.1" d="M28.5789 64.1836H0.186146V33.5914C0.0528469 29.1925 0.652693 25.0602 1.98568 21.1946C3.45198 17.3289 5.45146 13.9298 7.98415 10.9972C10.5168 8.0646 13.5161 5.66521 16.9818 3.79903C20.5809 1.79954 24.4466 0.533198 28.5789 0V13.1966C23.5135 14.9295 20.0477 17.5288 18.1815 20.9946C16.3154 24.3271 15.3823 28.4594 15.3823 33.3914H28.5789V64.1836ZM71.168 64.1836H42.7752V33.5914C42.6419 29.1925 43.2418 25.0602 44.5748 21.1946C46.0411 17.3289 48.0406 13.9298 50.5732 10.9972C53.1059 8.0646 56.1052 5.66521 59.5709 3.79903C63.17 1.79954 67.0357 0.533198 71.168 0V13.1966C66.1026 14.9295 62.6368 17.5288 60.7706 20.9946C58.9044 24.3271 57.9714 28.4594 57.9714 33.3914H71.168V64.1836Z" fill="#6B6383"/>
</svg>
